<?xml version="1.0" encoding="utf-8"?>
<!-- Generator: Adobe Illustrator 17.0.0, SVG Export Plug-In . SVG Version: 6.00 Build 0)  -->
<!DOCTYPE svg PUBLIC "-//W3C//DTD SVG 1.1//EN" "http://www.w3.org/Graphics/SVG/1.1/DTD/svg11.dtd">
<svg version="1.1" id="Livello_1" xmlns="http://www.w3.org/2000/svg" xmlns:xlink="http://www.w3.org/1999/xlink" xml:space="preserve" x="0px" y="0px"
	 width="160.475px" height="142.607px" viewBox="0 0 605.475 422.607">
<path d="M26.319,333.224c-0.902-1.465-2.101-2.648-3.593-3.551c-1.494-0.9-3.199-1.352-5.115-1.352
	c-2.367,0-4.326,0.633-5.875,1.902c-1.551,1.269-2.325,2.945-2.325,5.03c0,1.015,0.253,1.889,0.761,2.621
	c0.507,0.733,1.154,1.382,1.944,1.945c0.788,0.563,1.648,1.014,2.578,1.352c0.93,0.338,1.818,0.621,2.664,0.846
	c9.75,2.48,14.625,6.819,14.625,13.019c0,1.917-0.395,3.622-1.184,5.115c-0.79,1.494-1.859,2.747-3.212,3.761
	c-1.352,1.015-2.904,1.791-4.65,2.326c-1.747,0.535-3.607,0.802-5.579,0.802c-3.213,0-6.102-0.732-8.666-2.198
	c-2.565-1.465-4.354-3.605-5.368-6.425c-0.283-1.014,0.027-1.69,0.93-2.029l1.606-0.761c0.901-0.338,1.549-0.054,1.944,0.846
	l0.254,0.423c0.45,0.902,1.042,1.69,1.775,2.367c0.732,0.676,1.535,1.24,2.41,1.69c0.873,0.453,1.761,0.804,2.663,1.057
	c0.901,0.254,1.718,0.381,2.452,0.381c1.014,0,2.084-0.14,3.212-0.423c1.127-0.281,2.184-0.719,3.17-1.31
	c0.986-0.592,1.804-1.353,2.452-2.283c0.648-0.929,0.972-2.014,0.972-3.255c0-1.183-0.324-2.225-0.972-3.127
	c-0.648-0.902-1.466-1.692-2.452-2.368c-0.986-0.676-2.1-1.225-3.339-1.648c-1.24-0.423-2.452-0.774-3.635-1.057
	c-1.579-0.393-3.101-0.93-4.566-1.606c-1.466-0.677-2.747-1.493-3.846-2.452c-1.099-0.957-1.987-2.072-2.663-3.339
	c-0.677-1.269-1.015-2.692-1.015-4.27c0-3.437,1.184-6.214,3.551-8.327c2.367-2.113,5.495-3.171,9.384-3.171
	c2.875,0,5.438,0.579,7.693,1.734c2.254,1.156,4.114,3.058,5.58,5.707c0.225,0.394,0.309,0.775,0.254,1.14
	c-0.057,0.367-0.311,0.692-0.761,0.973l-1.522,0.93c-0.733,0.507-1.382,0.479-1.944-0.084c-0.114-0.113-0.212-0.24-0.296-0.381
	C26.53,333.634,26.431,333.451,26.319,333.224"/>
<path d="M75.013,361.799h1.606c0.451,0,0.859,0.057,1.226,0.169c0.366,0.113,0.549,0.479,0.549,1.099v2.198
	c0,0.564-0.198,0.916-0.591,1.056c-0.395,0.141-0.875,0.212-1.437,0.212h-1.269c-1.409,0-2.734-0.156-3.973-0.464
	c-1.24-0.31-2.325-0.888-3.255-1.734c-0.93-0.846-1.648-2-2.156-3.466c-0.507-1.465-0.761-3.352-0.761-5.665V329.25h-5.833
	c-0.564,0-0.972-0.097-1.226-0.296c-0.254-0.196-0.38-0.604-0.38-1.225v-1.522c0-0.619,0.126-1.027,0.38-1.225
	s0.662-0.296,1.226-0.296h5.833v-12.513c0-0.845,0.478-1.323,1.437-1.437l2.114-0.338c0.563-0.113,0.93,0.029,1.099,0.422
	c0.169,0.396,0.254,0.846,0.254,1.353v12.513h7.355c1.127,0,1.691,0.536,1.691,1.606v1.353c0,1.071-0.564,1.605-1.691,1.605h-7.355
	v24.771c0,2.988,0.423,4.988,1.268,6.003C71.97,361.038,73.265,361.63,75.013,361.799"/>
<path d="M107.56,349.709v-23.587c0-0.9,0.423-1.352,1.268-1.352h2.114c0.619,0,1.028,0.141,1.226,0.422
	c0.197,0.284,0.296,0.705,0.296,1.269v23.418c0,1.747,0.338,3.368,1.014,4.86c0.676,1.494,1.606,2.79,2.79,3.89
	c1.184,1.099,2.549,1.973,4.1,2.62c1.549,0.648,3.198,0.973,4.946,0.973c1.691,0,3.31-0.325,4.861-0.973
	c1.55-0.647,2.917-1.535,4.1-2.663c1.184-1.127,2.114-2.437,2.79-3.931c0.676-1.493,1.015-3.113,1.015-4.861v-23.502
	c0-1.015,0.507-1.522,1.521-1.522h1.775c1.071,0,1.607,0.507,1.607,1.522v38.297c0,1.015-0.536,1.521-1.607,1.521h-1.352
	c-0.959,0-1.494-0.506-1.607-1.521l-0.337-4.903c-1.467,2.142-3.298,3.918-5.496,5.326c-2.198,1.408-4.763,2.113-7.693,2.113
	c-2.367,0-4.607-0.452-6.721-1.353c-2.113-0.901-3.96-2.141-5.537-3.719c-1.579-1.577-2.819-3.424-3.72-5.538
	C108.011,354.401,107.56,352.134,107.56,349.709"/>
<path d="M213.321,305.071v59.264c0,0.564-0.099,1.001-0.295,1.31c-0.199,0.311-0.607,0.465-1.227,0.465h-1.775
	c-1.071,0-1.606-0.592-1.606-1.775v-5.242c-0.338,0.62-0.874,1.382-1.606,2.283c-0.733,0.902-1.706,1.775-2.917,2.621
	c-1.213,0.844-2.705,1.563-4.481,2.155c-1.775,0.592-3.903,0.888-6.383,0.888c-2.762,0-5.355-0.564-7.777-1.691
	c-2.424-1.127-4.523-2.663-6.299-4.607c-1.775-1.945-3.184-4.228-4.227-6.848c-1.043-2.621-1.564-5.424-1.564-8.412
	c0-2.986,0.521-5.805,1.564-8.454c1.043-2.649,2.452-4.945,4.227-6.891c1.776-1.944,3.875-3.478,6.299-4.607
	c2.422-1.126,5.015-1.691,7.777-1.691c3.89,0,7.102,0.959,9.638,2.874c2.536,1.917,4.452,4.228,5.749,6.933v-28.575
	c0-1.126,0.535-1.691,1.606-1.691h1.775c0.62,0,1.028,0.157,1.227,0.465C213.222,304.156,213.321,304.564,213.321,305.071
	 M208.756,345.44c0-2.304-0.409-4.482-1.226-6.535c-0.817-2.053-1.931-3.837-3.339-5.356c-1.41-1.517-3.043-2.725-4.903-3.626
	c-1.861-0.899-3.834-1.349-5.918-1.349c-2.086,0-4.058,0.45-5.918,1.349c-1.86,0.901-3.481,2.109-4.862,3.626
	c-1.381,1.519-2.48,3.303-3.296,5.356c-0.818,2.053-1.226,4.231-1.226,6.535c0,2.305,0.408,4.483,1.226,6.536
	c0.816,2.053,1.915,3.837,3.296,5.355c1.381,1.517,3.002,2.726,4.862,3.626c1.86,0.899,3.832,1.348,5.918,1.348
	c2.084,0,4.057-0.449,5.918-1.348c1.86-0.9,3.493-2.109,4.903-3.626c1.408-1.518,2.522-3.302,3.339-5.355
	C208.347,349.923,208.756,347.745,208.756,345.44"/>
<path d="M243.587,312.681c0-1.127,0.38-2.071,1.141-2.832c0.76-0.761,1.676-1.142,2.747-1.142c1.127,0,2.071,0.381,2.832,1.142
	c0.761,0.761,1.142,1.705,1.142,2.832c0,1.071-0.381,1.986-1.142,2.747c-0.761,0.761-1.705,1.141-2.832,1.141
	c-1.071,0-1.987-0.38-2.747-1.141C243.967,314.667,243.587,313.752,243.587,312.681 M245.108,364.589v-38.297
	c0-1.015,0.535-1.522,1.606-1.522h1.691c1.07,0,1.606,0.507,1.606,1.522v38.297c0,1.015-0.536,1.521-1.606,1.521h-1.691
	C245.643,366.11,245.108,365.604,245.108,364.589"/>
<path d="M279.854,345.482c0-2.986,0.535-5.791,1.607-8.412c1.069-2.62,2.536-4.916,4.396-6.89c1.859-1.972,4.058-3.521,6.594-4.65
	c2.536-1.126,5.297-1.691,8.285-1.691c2.986,0,5.761,0.565,8.327,1.691c2.564,1.129,4.776,2.678,6.636,4.65
	c1.861,1.974,3.326,4.27,4.397,6.89c1.069,2.621,1.605,5.426,1.605,8.412c0,2.988-0.536,5.791-1.605,8.412
	c-1.071,2.62-2.536,4.918-4.397,6.89c-1.86,1.973-4.072,3.523-6.636,4.649c-2.566,1.127-5.341,1.692-8.327,1.692
	c-2.988,0-5.749-0.565-8.285-1.692c-2.536-1.126-4.735-2.676-6.594-4.649c-1.86-1.972-3.327-4.27-4.396-6.89
	C280.389,351.273,279.854,348.47,279.854,345.482 M284.673,345.482c0,2.312,0.408,4.495,1.226,6.552
	c0.816,2.058,1.944,3.846,3.381,5.368c1.438,1.522,3.142,2.734,5.115,3.636c1.972,0.902,4.114,1.352,6.425,1.352
	c2.31,0,4.452-0.45,6.425-1.352c1.973-0.902,3.678-2.114,5.115-3.636c1.437-1.522,2.564-3.31,3.381-5.368
	c0.817-2.057,1.227-4.24,1.227-6.552c0-2.311-0.41-4.494-1.227-6.552c-0.817-2.056-1.944-3.846-3.381-5.368
	c-1.437-1.522-3.142-2.733-5.115-3.636c-1.973-0.9-4.115-1.352-6.425-1.352c-2.311,0-4.453,0.452-6.425,1.352
	c-1.973,0.903-3.677,2.114-5.115,3.636c-1.437,1.522-2.565,3.312-3.381,5.368C285.081,340.988,284.673,343.171,284.673,345.482"/>
<path d="M21.096,390.009v31.133c0,0.296-0.052,0.526-0.155,0.688c-0.104,0.163-0.319,0.244-0.644,0.244h-0.933
	c-0.563,0-0.844-0.31-0.844-0.932v-2.754c-0.177,0.326-0.459,0.726-0.843,1.199c-0.386,0.475-0.896,0.933-1.533,1.377
	c-0.637,0.444-1.421,0.821-2.354,1.133c-0.932,0.31-2.05,0.466-3.353,0.466c-1.451,0-2.813-0.296-4.086-0.888
	c-1.273-0.592-2.376-1.399-3.308-2.421c-0.933-1.021-1.674-2.221-2.221-3.598C0.274,414.28,0,412.808,0,411.237
	c0-1.568,0.274-3.048,0.822-4.44c0.547-1.392,1.288-2.599,2.221-3.62c0.932-1.022,2.035-1.828,3.308-2.42
	c1.273-0.592,2.635-0.889,4.086-0.889c2.043,0,3.731,0.504,5.063,1.51c1.333,1.007,2.339,2.221,3.02,3.643v-15.012
	c0-0.592,0.281-0.889,0.844-0.889h0.933c0.325,0,0.54,0.082,0.644,0.245C21.044,389.529,21.096,389.742,21.096,390.009
	 M18.698,411.216c0-1.211-0.215-2.354-0.644-3.434c-0.43-1.078-1.015-2.015-1.754-2.812c-0.741-0.798-1.599-1.433-2.576-1.905
	c-0.977-0.473-2.014-0.709-3.109-0.709c-1.096,0-2.132,0.236-3.109,0.709c-0.977,0.472-1.829,1.107-2.554,1.905
	c-0.726,0.797-1.303,1.734-1.732,2.812c-0.429,1.08-0.644,2.223-0.644,3.434s0.215,2.354,0.644,3.434
	c0.429,1.078,1.006,2.015,1.732,2.812c0.725,0.798,1.577,1.433,2.554,1.905c0.977,0.473,2.013,0.708,3.109,0.708
	c1.095,0,2.132-0.235,3.109-0.708c0.977-0.472,1.835-1.107,2.576-1.905c0.739-0.797,1.324-1.734,1.754-2.812
	C18.483,413.57,18.698,412.427,18.698,411.216"/>
<path d="M32.999,394.005c0-0.591,0.2-1.087,0.599-1.488c0.4-0.399,0.881-0.598,1.444-0.598c0.591,0,1.088,0.199,1.487,0.598
	c0.4,0.401,0.6,0.897,0.6,1.488c0,0.563-0.2,1.044-0.6,1.444c-0.399,0.399-0.896,0.599-1.487,0.599c-0.563,0-1.044-0.2-1.444-0.599
	C33.199,395.049,32.999,394.568,32.999,394.005 M33.798,421.274v-20.118c0-0.533,0.281-0.8,0.844-0.8h0.888
	c0.562,0,0.844,0.267,0.844,0.8v20.118c0,0.533-0.282,0.8-0.844,0.8h-0.888C34.079,422.074,33.798,421.807,33.798,421.274"/>
<path d="M89.267,401.245v20.118c0,0.475-0.252,0.711-0.755,0.711h-1.066c-0.326,0-0.525-0.059-0.599-0.178
	c-0.074-0.118-0.111-0.325-0.111-0.622v-3.908c-0.533,1.659-1.525,2.947-2.976,3.864c-1.451,0.917-3.153,1.377-5.107,1.377
	c-1.51,0-2.917-0.297-4.219-0.888c-1.303-0.592-2.428-1.399-3.376-2.42c-0.947-1.022-1.695-2.221-2.242-3.598
	c-0.549-1.377-0.822-2.85-0.822-4.419c0-1.569,0.266-3.049,0.799-4.441c0.533-1.392,1.281-2.605,2.243-3.642
	c0.962-1.036,2.095-1.851,3.398-2.442c1.302-0.592,2.709-0.889,4.219-0.889c0.977,0,1.91,0.126,2.798,0.378
	c0.888,0.252,1.687,0.606,2.398,1.065c0.711,0.46,1.317,0.999,1.821,1.621c0.503,0.622,0.858,1.318,1.066,2.088l0.088-3.775
	c0.03-0.296,0.089-0.518,0.178-0.666c0.089-0.149,0.296-0.223,0.622-0.223h0.933C89.03,400.356,89.267,400.653,89.267,401.245
	 M86.736,411.282c0-1.214-0.2-2.361-0.6-3.442c-0.4-1.08-0.955-2.028-1.665-2.842c-0.711-0.815-1.562-1.458-2.554-1.933
	c-0.992-0.472-2.08-0.71-3.264-0.71c-1.185,0-2.28,0.238-3.287,0.71c-1.006,0.475-1.873,1.118-2.598,1.933
	c-0.726,0.814-1.288,1.762-1.687,2.842c-0.4,1.081-0.6,2.228-0.6,3.442s0.207,2.354,0.622,3.42c0.414,1.065,0.984,1.998,1.71,2.798
	c0.725,0.799,1.583,1.436,2.575,1.909c0.992,0.475,2.08,0.711,3.265,0.711c1.184,0,2.272-0.23,3.264-0.689
	c0.992-0.459,1.843-1.087,2.554-1.887c0.71-0.799,1.265-1.732,1.665-2.798C86.536,413.68,86.736,412.525,86.736,411.282"/>
<path d="M102.413,421.319v-19.941c0-0.681,0.237-1.022,0.711-1.022h1.11c0.266,0,0.437,0.082,0.511,0.244
	c0.073,0.163,0.126,0.364,0.155,0.6l0.045,2.443c0.414-1.095,1.132-1.976,2.154-2.642c1.021-0.666,2.242-0.999,3.664-0.999
	c0.65,0,1.383,0.118,2.198,0.354c0.814,0.237,1.473,0.533,1.976,0.889c0.148,0.148,0.296,0.333,0.444,0.554
	c0.148,0.223,0.148,0.453,0,0.689l-0.666,0.977c-0.148,0.178-0.318,0.26-0.51,0.245c-0.193-0.015-0.334-0.052-0.422-0.112
	c-0.415-0.266-0.904-0.51-1.466-0.732c-0.563-0.223-1.14-0.333-1.732-0.333c-0.829,0-1.584,0.192-2.265,0.577
	c-0.681,0.385-1.273,0.889-1.777,1.51c-0.503,0.622-0.895,1.34-1.176,2.154c-0.282,0.815-0.422,1.65-0.422,2.509v11.991
	c0,0.533-0.267,0.8-0.8,0.8h-0.932C102.68,422.074,102.413,421.823,102.413,421.319"/>
<path d="M140.653,404.976c-0.771-0.651-1.673-1.243-2.709-1.776c-1.037-0.534-2.221-0.8-3.553-0.8c-1.215,0-2.369,0.214-3.465,0.641
	c-1.095,0.428-2.05,1.024-2.864,1.79c-0.815,0.766-1.466,1.686-1.954,2.762c-0.489,1.075-0.733,2.261-0.733,3.556
	c0,1.356,0.244,2.579,0.733,3.669c0.488,1.09,1.139,2.017,1.954,2.784c0.814,0.766,1.769,1.361,2.864,1.789
	c1.096,0.428,2.25,0.641,3.465,0.641c1.006,0,2.072-0.222,3.198-0.666c1.124-0.445,2.16-1.095,3.108-1.954
	c0.148-0.149,0.296-0.193,0.444-0.134c0.148,0.06,0.252,0.119,0.311,0.177l0.755,1.111c0.059,0.059,0.104,0.148,0.133,0.266
	c0.03,0.12-0.044,0.267-0.222,0.445c-1.036,1.046-2.272,1.855-3.708,2.428c-1.436,0.572-2.82,0.843-4.153,0.814
	c-1.451-0.03-2.857-0.333-4.219-0.911c-1.362-0.577-2.569-1.369-3.619-2.376c-1.052-1.006-1.888-2.198-2.51-3.575
	c-0.621-1.376-0.932-2.879-0.932-4.508c0-1.569,0.296-3.042,0.888-4.419c0.592-1.376,1.406-2.567,2.443-3.575
	c1.036-1.006,2.249-1.798,3.641-2.376c1.392-0.577,2.887-0.865,4.486-0.865c0.77,0,1.517,0.097,2.243,0.293
	c0.725,0.196,1.421,0.453,2.087,0.769c0.666,0.316,1.288,0.663,1.866,1.038c0.577,0.376,1.088,0.757,1.532,1.141
	c0.325,0.266,0.37,0.549,0.133,0.844l-0.888,0.977c-0.06,0.119-0.163,0.171-0.311,0.155
	C140.948,405.117,140.8,405.065,140.653,404.976"/>
<path d="M169.609,421.274v-12.302c0-0.888-0.149-1.724-0.444-2.509c-0.297-0.784-0.719-1.472-1.266-2.065
	c-0.548-0.592-1.199-1.066-1.954-1.421c-0.755-0.355-1.592-0.533-2.509-0.533c-0.889,0-1.763,0.163-2.621,0.488
	c-0.859,0.326-1.621,0.778-2.287,1.355c-0.666,0.577-1.207,1.258-1.621,2.043c-0.415,0.785-0.622,1.621-0.622,2.509v12.435
	c0,0.533-0.266,0.8-0.799,0.8h-0.933c-0.533,0-0.799-0.267-0.799-0.8v-31.31c0-0.562,0.236-0.844,0.71-0.844h1.066
	c0.503,0,0.755,0.282,0.755,0.844v13.59c0.74-1.066,1.755-1.946,3.042-2.642c1.288-0.696,2.687-1.044,4.198-1.044
	c1.332,0,2.531,0.252,3.597,0.755c1.066,0.504,1.968,1.192,2.709,2.065c0.739,0.874,1.31,1.888,1.71,3.042
	c0.4,1.155,0.599,2.398,0.599,3.731v11.813c0,0.533-0.252,0.8-0.755,0.8h-1.021C169.86,422.074,169.609,421.807,169.609,421.274"/>
<path d="M184.264,394.005c0-0.591,0.2-1.087,0.599-1.488c0.4-0.399,0.881-0.598,1.444-0.598c0.591,0,1.088,0.199,1.487,0.598
	c0.4,0.401,0.6,0.897,0.6,1.488c0,0.563-0.2,1.044-0.6,1.444c-0.399,0.399-0.896,0.599-1.487,0.599c-0.563,0-1.044-0.2-1.444-0.599
	C184.464,395.049,184.264,394.568,184.264,394.005 M185.063,421.274v-20.118c0-0.533,0.281-0.8,0.844-0.8h0.888
	c0.562,0,0.844,0.267,0.844,0.8v20.118c0,0.533-0.282,0.8-0.844,0.8h-0.888C185.344,422.074,185.063,421.807,185.063,421.274"/>
<path d="M207.713,419.809h0.844c0.236,0,0.451,0.029,0.644,0.089c0.192,0.059,0.288,0.252,0.288,0.577v1.154
	c0,0.297-0.104,0.482-0.311,0.556c-0.207,0.073-0.459,0.11-0.755,0.11h-0.666c-0.74,0-1.436-0.081-2.087-0.244
	c-0.652-0.162-1.222-0.466-1.71-0.91c-0.489-0.444-0.866-1.051-1.132-1.821c-0.267-0.77-0.4-1.761-0.4-2.976V402.71h-3.065
	c-0.296,0-0.51-0.051-0.644-0.156c-0.133-0.102-0.199-0.317-0.199-0.643v-0.8c0-0.325,0.066-0.539,0.199-0.644
	c0.134-0.103,0.348-0.155,0.644-0.155h3.065v-6.573c0-0.445,0.251-0.696,0.755-0.755l1.11-0.178
	c0.296-0.059,0.489,0.016,0.578,0.222c0.088,0.208,0.133,0.444,0.133,0.711v6.573h3.864c0.592,0,0.888,0.281,0.888,0.844v0.711
	c0,0.562-0.296,0.843-0.888,0.843h-3.864v13.013c0,1.569,0.222,2.62,0.666,3.153C206.114,419.409,206.795,419.72,207.713,419.809"/>
<path d="M230.318,422.562c-1.48,0-2.872-0.296-4.174-0.888c-1.303-0.591-2.436-1.406-3.398-2.443
	c-0.963-1.035-1.717-2.242-2.265-3.619s-0.822-2.835-0.822-4.375c0-1.569,0.274-3.042,0.822-4.419
	c0.548-1.376,1.295-2.582,2.243-3.619c0.947-1.036,2.057-1.851,3.331-2.443c1.272-0.591,2.635-0.888,4.086-0.888
	c1.391,0,2.701,0.289,3.93,0.866c1.229,0.577,2.302,1.362,3.22,2.353c0.917,0.993,1.65,2.155,2.199,3.487
	c0.547,1.333,0.821,2.754,0.821,4.263c0,0.534-0.163,0.889-0.488,1.067c-0.327,0.177-0.741,0.265-1.244,0.265h-16.344
	c0.059,1.09,0.311,2.114,0.755,3.071c0.444,0.957,1.029,1.788,1.754,2.495c0.726,0.706,1.562,1.266,2.51,1.678
	c0.947,0.412,1.954,0.633,3.02,0.662h0.089c1.243,0,2.42-0.251,3.53-0.755c1.111-0.503,2.066-1.169,2.865-1.998
	c0.207-0.207,0.414-0.311,0.622-0.311c0.207,0,0.384,0.074,0.533,0.222l0.533,0.755c0.207,0.237,0.295,0.444,0.266,0.622
	c-0.03,0.178-0.222,0.43-0.577,0.755c-1.066,0.956-2.25,1.728-3.553,2.316C233.279,422.268,231.858,422.562,230.318,422.562
	 M230.052,402.355c-0.977,0-1.896,0.186-2.754,0.555c-0.859,0.371-1.628,0.882-2.309,1.532c-0.682,0.652-1.251,1.422-1.71,2.309
	c-0.459,0.889-0.777,1.866-0.955,2.932h15.456c-0.119-1.036-0.416-2.006-0.889-2.909c-0.474-0.903-1.059-1.68-1.754-2.332
	c-0.696-0.65-1.481-1.161-2.354-1.532C231.909,402.541,230.999,402.355,230.052,402.355"/>
<path d="M256.344,419.809h0.844c0.236,0,0.451,0.029,0.644,0.089c0.192,0.059,0.288,0.252,0.288,0.577v1.154
	c0,0.297-0.104,0.482-0.311,0.556c-0.207,0.073-0.459,0.11-0.755,0.11h-0.666c-0.74,0-1.436-0.081-2.087-0.244
	c-0.652-0.162-1.222-0.466-1.71-0.91c-0.489-0.444-0.866-1.051-1.132-1.821c-0.267-0.77-0.4-1.761-0.4-2.976V402.71h-3.065
	c-0.296,0-0.51-0.051-0.644-0.156c-0.133-0.102-0.199-0.317-0.199-0.643v-0.8c0-0.325,0.066-0.539,0.199-0.644
	c0.134-0.103,0.348-0.155,0.644-0.155h3.065v-6.573c0-0.445,0.251-0.696,0.755-0.755l1.11-0.178
	c0.296-0.059,0.489,0.016,0.578,0.222c0.088,0.208,0.133,0.444,0.133,0.711v6.573h3.864c0.592,0,0.888,0.281,0.888,0.844v0.711
	c0,0.562-0.296,0.843-0.888,0.843h-3.864v13.013c0,1.569,0.222,2.62,0.666,3.153C254.745,419.409,255.426,419.72,256.344,419.809"/>
<path d="M277.128,419.809h0.844c0.236,0,0.451,0.029,0.644,0.089c0.192,0.059,0.288,0.252,0.288,0.577v1.154
	c0,0.297-0.104,0.482-0.311,0.556c-0.207,0.073-0.459,0.11-0.755,0.11h-0.666c-0.74,0-1.436-0.081-2.087-0.244
	c-0.652-0.162-1.222-0.466-1.71-0.91c-0.489-0.444-0.866-1.051-1.132-1.821c-0.267-0.77-0.4-1.761-0.4-2.976V402.71h-3.065
	c-0.296,0-0.51-0.051-0.644-0.156c-0.133-0.102-0.199-0.317-0.199-0.643v-0.8c0-0.325,0.066-0.539,0.199-0.644
	c0.134-0.103,0.348-0.155,0.644-0.155h3.065v-6.573c0-0.445,0.251-0.696,0.755-0.755l1.11-0.178
	c0.296-0.059,0.489,0.016,0.578,0.222c0.088,0.208,0.133,0.444,0.133,0.711v6.573h3.864c0.592,0,0.888,0.281,0.888,0.844v0.711
	c0,0.562-0.296,0.843-0.888,0.843h-3.864v13.013c0,1.569,0.222,2.62,0.666,3.153C275.529,419.409,276.21,419.72,277.128,419.809"/>
<path d="M290.228,413.458v-12.391c0-0.473,0.222-0.711,0.667-0.711h1.11c0.325,0,0.539,0.075,0.643,0.223
	c0.104,0.149,0.156,0.37,0.156,0.666v12.302c0,0.918,0.178,1.769,0.533,2.554c0.355,0.785,0.844,1.465,1.466,2.043
	c0.621,0.577,1.339,1.037,2.154,1.376c0.813,0.341,1.68,0.511,2.598,0.511c0.888,0,1.739-0.17,2.553-0.511
	c0.814-0.339,1.532-0.806,2.154-1.399c0.622-0.592,1.111-1.28,1.466-2.064c0.355-0.785,0.532-1.636,0.532-2.554v-12.347
	c0-0.533,0.267-0.8,0.8-0.8h0.933c0.562,0,0.843,0.267,0.843,0.8v20.118c0,0.534-0.281,0.8-0.843,0.8h-0.711
	c-0.503,0-0.784-0.266-0.844-0.8l-0.178-2.575c-0.769,1.125-1.731,2.058-2.886,2.798c-1.155,0.739-2.502,1.11-4.042,1.11
	c-1.243,0-2.42-0.237-3.53-0.711c-1.111-0.473-2.08-1.125-2.909-1.954c-0.83-0.828-1.481-1.798-1.954-2.909
	C290.465,415.923,290.228,414.731,290.228,413.458"/>
<path d="M322.604,421.319v-19.941c0-0.681,0.236-1.022,0.711-1.022h1.11c0.266,0,0.437,0.082,0.511,0.244
	c0.073,0.163,0.125,0.364,0.155,0.6l0.044,2.443c0.414-1.095,1.133-1.976,2.155-2.642c1.021-0.666,2.242-0.999,3.664-0.999
	c0.65,0,1.383,0.118,2.198,0.354c0.813,0.237,1.473,0.533,1.976,0.889c0.148,0.148,0.295,0.333,0.444,0.554
	c0.148,0.223,0.148,0.453,0,0.689l-0.666,0.977c-0.149,0.178-0.319,0.26-0.511,0.245s-0.333-0.052-0.422-0.112
	c-0.415-0.266-0.903-0.51-1.465-0.732c-0.563-0.223-1.14-0.333-1.732-0.333c-0.829,0-1.584,0.192-2.265,0.577
	c-0.681,0.385-1.273,0.889-1.777,1.51c-0.503,0.622-0.896,1.34-1.177,2.154c-0.281,0.815-0.422,1.65-0.422,2.509v11.991
	c0,0.533-0.266,0.8-0.799,0.8h-0.932C322.871,422.074,322.604,421.823,322.604,421.319"/>
<path d="M364.485,401.245v20.118c0,0.475-0.252,0.711-0.754,0.711h-1.066c-0.326,0-0.525-0.059-0.6-0.178
	c-0.074-0.118-0.111-0.325-0.111-0.622v-3.908c-0.533,1.659-1.525,2.947-2.975,3.864c-1.451,0.917-3.154,1.377-5.107,1.377
	c-1.511,0-2.918-0.297-4.22-0.888c-1.303-0.592-2.428-1.399-3.376-2.42c-0.947-1.022-1.695-2.221-2.242-3.598
	c-0.549-1.377-0.822-2.85-0.822-4.419c0-1.569,0.266-3.049,0.8-4.441c0.533-1.392,1.28-2.605,2.243-3.642
	c0.961-1.036,2.094-1.851,3.397-2.442c1.302-0.592,2.709-0.889,4.22-0.889c0.977,0,1.908,0.126,2.797,0.378
	c0.889,0.252,1.687,0.606,2.398,1.065c0.711,0.46,1.317,0.999,1.821,1.621c0.504,0.622,0.859,1.318,1.066,2.088l0.09-3.775
	c0.029-0.296,0.088-0.518,0.178-0.666c0.087-0.149,0.294-0.223,0.621-0.223h0.931C364.249,400.356,364.485,400.653,364.485,401.245
	 M361.954,411.282c0-1.214-0.199-2.361-0.6-3.442c-0.398-1.08-0.955-2.028-1.666-2.842c-0.709-0.815-1.56-1.458-2.552-1.933
	c-0.993-0.472-2.08-0.71-3.264-0.71c-1.186,0-2.281,0.238-3.287,0.71c-1.007,0.475-1.873,1.118-2.599,1.933
	c-0.725,0.814-1.288,1.762-1.687,2.842c-0.4,1.081-0.6,2.228-0.6,3.442s0.207,2.354,0.622,3.42c0.414,1.065,0.984,1.998,1.71,2.798
	c0.725,0.799,1.583,1.436,2.575,1.909c0.993,0.475,2.08,0.711,3.266,0.711c1.184,0,2.271-0.23,3.264-0.689
	c0.992-0.459,1.843-1.087,2.552-1.887c0.711-0.799,1.268-1.732,1.666-2.798C361.755,413.68,361.954,412.525,361.954,411.282"/>
<path d="M537.318,233.25c41.4-18.68,67.148-62.603,67.148-106.021c0-40.39-13.128-65.634-30.797-84.818l24.233-28.273L581.747,0
	l-24.235,28.273c-19.184-13.63-45.438-22.718-70.681-22.718c-43.633,0-81.738,20.029-101.891,56.969
	c-16.114-35.457-50.863-57.578-94.721-57.578c-38.37,0-77.245,20.7-92.391,61.595c-14.641-44.429-54.527-61.595-92.392-61.595
	c-32.312,0-64.118,13.633-81.283,46.45L23.648,9.995H0.423v249.406h24.739V111.475c0-47.963,32.311-82.801,79.77-82.801
	c47.457,0,80.274,34.838,80.274,82.801v147.926h24.74V111.475c0-47.963,32.815-83.306,80.273-83.306
	c47.457,0,79.769,33.828,79.769,81.79v7.343c0.004-0.001,0.009-0.002,0.013-0.003c-0.195,3.247-0.3,6.555-0.3,9.93
	c0,66.642,44.933,120.664,117.13,120.664c46.448,0,94.41,21.205,94.41,74.719c0,53.012-44.429,75.228-94.41,75.228
	c-49.982,0-93.402-24.234-93.402-75.228h-24.737c0,63.111,52.001,99.461,118.139,99.461c66.137,0,118.644-32.311,118.644-99.461
	C605.475,279.699,581.241,248.903,537.318,233.25z M394.44,127.229c0-65.129,41.398-96.936,92.391-96.936
	c51.497,0,93.401,33.828,93.401,96.936c0,51.496-41.904,95.924-93.401,95.924C429.78,223.153,394.44,178.725,394.44,127.229z"/>
<path fill="#75A199" d="M348.654,250.204c-1.879-1.879-4.509-4.383-4.509-4.383c3.758-5.886,11.272-14.151,23.669-14.276
	c13.651,0,22.541,7.763,22.541,22.04c0,15.027-26.048,35.69-37.067,42.453h41.45v7.138h-51.845v-6.888
	c8.14-5.886,40.449-30.681,40.449-43.329c-0.125-10.269-7.012-14.777-15.653-14.651
	C357.421,238.433,351.284,246.322,348.654,250.204"/>
</svg>
